REM DIRINDEX 1\2,1\3,1\4,1\5
REM DIRNAME cjc046,folder01,folder02,folder03,folder04
TITLE ""
FILE "085.mp3" MP3
  TRACK 01 AUDIO
    TITLE "0:"
    INDEX 01 00:00:00
  TRACK 02 AUDIO
    TITLE "2:cjc046_1730"
    INDEX 01 00:00:15
  TRACK 03 AUDIO
    TITLE "0:"
    INDEX 01 00:01:15
  TRACK 04 AUDIO
    TITLE "3:cjc046_1731"
    INDEX 01 00:01:32
  TRACK 05 AUDIO
    TITLE "0:"
    INDEX 01 00:02:36
  TRACK 06 AUDIO
    TITLE "4:cjc046_1732"
    INDEX 01 00:02:53
  TRACK 07 AUDIO
    TITLE "0:"
    INDEX 01 00:03:53
  TRACK 08 AUDIO
    TITLE "2:cjc046_1733"
    INDEX 01 00:04:60
  TRACK 09 AUDIO
    TITLE "0:"
    INDEX 01 00:05:67
  TRACK 10 AUDIO
    TITLE "3:cjc046_1734"
    INDEX 01 00:06:16
  TRACK 11 AUDIO
    TITLE "0:"
    INDEX 01 00:07:37
  TRACK 12 AUDIO
    TITLE "4:cjc046_1735"
    INDEX 01 00:07:49
  TRACK 13 AUDIO
    TITLE "0:"
    INDEX 01 00:08:54
  TRACK 14 AUDIO
    TITLE "2:cjc046_1736"
    INDEX 01 00:09:61
  TRACK 15 AUDIO
    TITLE "0:"
    INDEX 01 00:10:66
  TRACK 16 AUDIO
    TITLE "3:cjc046_1737"
    INDEX 01 00:11:19
  TRACK 17 AUDIO
    TITLE "0:"
    INDEX 01 00:12:09
  TRACK 18 AUDIO
    TITLE "4:cjc046_1738"
    INDEX 01 00:12:24
  TRACK 19 AUDIO
    TITLE "0:"
    INDEX 01 00:13:28
  TRACK 20 AUDIO
    TITLE "2:cjc046_1739"
    INDEX 01 00:14:33
  TRACK 21 AUDIO
    TITLE "0:"
    INDEX 01 00:15:34
  TRACK 22 AUDIO
    TITLE "3:cjc046_1740"
    INDEX 01 00:15:60
  TRACK 23 AUDIO
    TITLE "0:"
    INDEX 01 00:16:61
  TRACK 24 AUDIO
    TITLE "4:cjc046_1741"
    INDEX 01 00:16:73
  TRACK 25 AUDIO
    TITLE "0:"
    INDEX 01 00:17:74
  TRACK 26 AUDIO
    TITLE "2:cjc046_1742"
    INDEX 01 00:19:09
  TRACK 27 AUDIO
    TITLE "0:"
    INDEX 01 00:20:00
  TRACK 28 AUDIO
    TITLE "3:cjc046_1743"
    INDEX 01 00:20:28
  TRACK 29 AUDIO
    TITLE "0:"
    INDEX 01 00:21:31
  TRACK 30 AUDIO
    TITLE "4:cjc046_1744"
    INDEX 01 00:21:45
  TRACK 31 AUDIO
    TITLE "0:"
    INDEX 01 00:22:38
  TRACK 32 AUDIO
    TITLE "2:cjc046_1745"
    INDEX 01 00:23:46
  TRACK 33 AUDIO
    TITLE "0:"
    INDEX 01 00:24:47
  TRACK 34 AUDIO
    TITLE "3:cjc046_1746"
    INDEX 01 00:24:72
  TRACK 35 AUDIO
    TITLE "0:"
    INDEX 01 00:26:09
  TRACK 36 AUDIO
    TITLE "4:cjc046_1747"
    INDEX 01 00:26:22
  TRACK 37 AUDIO
    TITLE "0:"
    INDEX 01 00:27:26
  TRACK 38 AUDIO
    TITLE "2:cjc046_1748"
    INDEX 01 00:28:35
  TRACK 39 AUDIO
    TITLE "0:"
    INDEX 01 00:29:40
  TRACK 40 AUDIO
    TITLE "3:cjc046_1749"
    INDEX 01 00:29:68
  TRACK 41 AUDIO
    TITLE "0:"
    INDEX 01 00:31:18
  TRACK 42 AUDIO
    TITLE "4:cjc046_1750"
    INDEX 01 00:31:29
  TRACK 43 AUDIO
    TITLE "0:"
    INDEX 01 00:32:37
  TRACK 44 AUDIO
    TITLE "2:cjc046_1751"
    INDEX 01 00:33:42
  TRACK 45 AUDIO
    TITLE "0:"
    INDEX 01 00:34:51
  TRACK 46 AUDIO
    TITLE "3:cjc046_1752"
    INDEX 01 00:35:04
  TRACK 47 AUDIO
    TITLE "0:"
    INDEX 01 00:36:66
  TRACK 48 AUDIO
    TITLE "4:cjc046_1753"
    INDEX 01 00:36:74
  TRACK 49 AUDIO
    TITLE "0:"
    INDEX 01 00:38:10
  TRACK 50 AUDIO
    TITLE "2:cjc046_1754"
    INDEX 01 00:39:21
  TRACK 51 AUDIO
    TITLE "0:"
    INDEX 01 00:40:19
  TRACK 52 AUDIO
    TITLE "3:cjc046_1755"
    INDEX 01 00:40:42
  TRACK 53 AUDIO
    TITLE "0:"
    INDEX 01 00:41:65
  TRACK 54 AUDIO
    TITLE "4:cjc046_1756"
    INDEX 01 00:42:00
  TRACK 55 AUDIO
    TITLE "0:"
    INDEX 01 00:42:74
  TRACK 56 AUDIO
    TITLE "2:cjc046_1757"
    INDEX 01 00:44:09
  TRACK 57 AUDIO
    TITLE "0:"
    INDEX 01 00:45:16
  TRACK 58 AUDIO
    TITLE "3:cjc046_1758"
    INDEX 01 00:45:41
  TRACK 59 AUDIO
    TITLE "0:"
    INDEX 01 00:46:45
  TRACK 60 AUDIO
    TITLE "4:cjc046_1759"
    INDEX 01 00:46:53
  TRACK 61 AUDIO
    TITLE "0:"
    INDEX 01 00:47:60
  TRACK 62 AUDIO
    TITLE "2:cjc046_1760"
    INDEX 01 00:48:67
  TRACK 63 AUDIO
    TITLE "0:"
    INDEX 01 00:49:74
  TRACK 64 AUDIO
    TITLE "3:cjc046_1761"
    INDEX 01 00:50:23
  TRACK 65 AUDIO
    TITLE "0:"
    INDEX 01 00:51:48
  TRACK 66 AUDIO
    TITLE "4:cjc046_1762"
    INDEX 01 00:51:63
  TRACK 67 AUDIO
    TITLE "0:"
    INDEX 01 00:52:69
